<svg width="652" height="571" viewBox="0 0 652 571" fill="none" xmlns="http://www.w3.org/2000/svg">
<path d="M411.445 40.1253H335.445V85.1253H411.445V40.1253Z" fill="#2F2E41"/>
<path d="M260.152 47.3813H220.968V33.7174C220.968 28.5212 223.032 23.5379 226.706 19.8637C230.38 16.1895 235.363 14.1253 240.56 14.1253C245.756 14.1253 250.739 16.1895 254.413 19.8637C258.088 23.5379 260.152 28.5212 260.152 33.7174V47.3813ZM221.835 46.5137H259.284V33.7174C259.284 28.7513 257.311 23.9887 253.8 20.4771C250.288 16.9656 245.526 14.9928 240.56 14.9928C235.594 14.9928 230.831 16.9656 227.319 20.4771C223.808 23.9887 221.835 28.7513 221.835 33.7174V46.5137Z" fill="#3F3D56"/>
<path d="M279.527 45.502V40.162L179.877 42.832L176.723 178.092L191.471 196.31L279.527 45.502Z" fill="#3F3D56"/>
<path d="M297.167 43.622L189.158 46.08L191.471 196.31L295.705 185.075L297.167 43.622Z" fill="#EBEAF2"/>
<path d="M388.997 530.355H376.737L370.905 483.067H388.999L388.997 530.355Z" fill="#FFB6B6"/>
<path d="M392.123 542.239L352.593 542.238V541.738C352.593 537.657 354.214 533.744 357.099 530.858C359.985 527.973 363.898 526.352 367.979 526.351H367.98L392.124 526.352L392.123 542.239Z" fill="#2F2E41"/>
<path d="M343.997 530.355H331.737L325.905 483.067H343.999L343.997 530.355Z" fill="#FFB6B6"/>
<path d="M347.123 542.239L307.593 542.238V541.738C307.593 537.657 309.214 533.744 312.099 530.858C314.985 527.973 318.898 526.352 322.979 526.351H322.98L347.124 526.352L347.123 542.239Z" fill="#2F2E41"/>
<path d="M307.992 234.259C307.992 234.259 290.08 272.834 306.262 350.48C322.445 428.125 322.579 513.368 322.579 513.368L347.322 513.771L361.222 330.251L368.5 511.18H392.878L414.362 333.111C414.362 333.111 428.5 253.598 396.973 239.362L307.992 234.259Z" fill="#2F2E41"/>
<path d="M393.733 98.1253L339.555 93.1312C322.565 105.515 313.03 127.756 314.987 150.705C317.641 181.819 316.743 224.639 295.445 243.241C295.445 243.241 353.494 289.057 405.06 245.591C405.06 245.591 387.427 198.353 399.534 179.489C411.64 160.625 416.007 107.625 393.733 98.1253Z" fill="#474652"/>
<path d="M232.527 21.2418C232.361 22.8035 232.539 24.3827 233.049 25.868C233.559 27.3533 234.389 28.7087 235.48 29.8388C236.571 30.9688 237.896 31.8459 239.362 32.4084C240.828 32.9708 242.4 33.205 243.967 33.0942L315.5 99.8519L328.321 80.3221L253.975 20.8425C253.614 18.2231 252.305 15.8268 250.296 14.1079C248.287 12.3889 245.717 11.4666 243.073 11.5159C240.43 11.5651 237.896 12.5823 235.952 14.3749C234.008 16.1675 232.79 18.6108 232.527 21.2418V21.2418Z" fill="#FFB6B6"/>
<path d="M302.142 89.5391L319.112 72.1073C319.595 71.6113 320.179 71.2253 320.824 70.9754C321.47 70.7255 322.162 70.6176 322.853 70.6592C323.544 70.7008 324.217 70.8908 324.828 71.2162C325.439 71.5417 325.973 71.995 326.393 72.5453L341.105 91.8279C343.628 94.3127 345.063 97.6967 345.095 101.238C345.127 104.779 343.754 108.189 341.276 110.719C338.799 113.249 335.419 114.694 331.878 114.736C328.336 114.778 324.923 113.414 322.386 110.944L302.775 96.8055C302.214 96.4005 301.747 95.8793 301.405 95.2773C301.063 94.6754 300.855 94.0069 300.795 93.3173C300.735 92.6277 300.824 91.9333 301.057 91.2813C301.289 90.6293 301.659 90.0351 302.142 89.5391V89.5391Z" fill="#E4E4E4"/>
<path d="M498.284 183.812C498.364 182.243 498.098 180.677 497.506 179.222C496.914 177.767 496.01 176.46 494.859 175.392C493.707 174.325 492.335 173.523 490.84 173.042C489.344 172.562 487.762 172.416 486.204 172.613L411.072 109.933L399.356 130.145L476.892 185.402C477.398 187.998 478.837 190.317 480.939 191.922C483.041 193.527 485.658 194.305 488.295 194.109C490.931 193.913 493.405 192.756 495.246 190.859C497.087 188.961 498.168 186.454 498.284 183.812V183.812Z" fill="#FFB6B6"/>
<path d="M424.982 119.488L409.007 137.835C408.553 138.357 407.991 138.775 407.36 139.061C406.73 139.346 406.045 139.492 405.353 139.489C404.661 139.486 403.977 139.334 403.349 139.043C402.721 138.752 402.163 138.329 401.713 137.803L385.953 119.367C383.295 117.027 381.674 113.727 381.445 110.193C381.216 106.659 382.398 103.178 384.731 100.514C387.064 97.8499 390.359 96.2197 393.893 95.9811C397.426 95.7424 400.91 96.9147 403.581 99.2409L423.946 112.268C424.529 112.641 425.025 113.135 425.4 113.717C425.774 114.299 426.019 114.955 426.118 115.641C426.216 116.326 426.165 117.024 425.97 117.688C425.774 118.352 425.437 118.966 424.982 119.488V119.488Z" fill="#E4E4E4"/>
<path d="M505.918 210.316H476.237V199.966C476.237 196.03 477.801 192.255 480.584 189.472C483.367 186.689 487.142 185.125 491.078 185.125C495.013 185.125 498.788 186.689 501.571 189.472C504.354 192.255 505.918 196.03 505.918 199.966L505.918 210.316ZM476.894 209.659H505.261V199.966C505.261 196.204 503.766 192.597 501.107 189.937C498.447 187.277 494.839 185.782 491.077 185.782C487.316 185.782 483.708 187.277 481.048 189.937C478.388 192.597 476.894 196.204 476.894 199.966V209.659Z" fill="#3F3D56"/>
<path d="M520.594 208.892V204.847L445.112 206.87L442.723 309.325L453.894 323.125L520.594 208.892Z" fill="#3F3D56"/>
<path d="M533.956 207.468L452.142 209.33L453.894 323.125L532.849 314.615L533.956 207.468Z" fill="#F2F2F2"/>
<path d="M370.445 84.1253C388.118 84.1253 402.445 69.7984 402.445 52.1253C402.445 34.4522 388.118 20.1253 370.445 20.1253C352.772 20.1253 338.445 34.4522 338.445 52.1253C338.445 69.7984 352.772 84.1253 370.445 84.1253Z" fill="#FFB6B6"/>
<path d="M355.712 37.8634C366.782 48.7118 386.046 49.7516 398.219 40.1577C401.598 51.8109 401.968 64.1304 399.294 75.9653C396.621 87.8003 390.991 98.7645 382.931 107.834C389.703 110.28 397.498 108.671 403.551 104.771C409.604 100.871 414.086 94.9167 417.469 88.5605C425.842 72.8259 427.939 53.6133 422.015 36.8025C416.091 19.9918 401.898 6.05218 384.655 1.53844C367.412 -2.9753 347.642 2.6003 336.121 16.2011C324.075 30.4232 322.123 51.2624 327.402 69.1375C332.681 87.0126 344.26 102.363 356.981 115.985C350.871 100.272 346.819 83.8355 344.926 67.0833C344.279 61.346 343.901 55.432 345.521 49.8906C347.142 44.3491 351.131 39.1874 356.691 37.6304" fill="#2F2E41"/>
<mask id="path-20-inside-1_1_3" fill="white">
<path d="M206.681 417.191H177V406.84C177 402.905 178.564 399.13 181.347 396.347C184.13 393.564 187.905 392 191.841 392C195.776 392 199.551 393.564 202.334 396.347C205.117 399.13 206.681 402.905 206.681 406.84L206.681 417.191ZM177.657 416.533H206.024V406.84C206.024 403.079 204.529 399.471 201.87 396.811C199.21 394.151 195.602 392.657 191.84 392.657C188.079 392.657 184.471 394.151 181.811 396.811C179.151 399.471 177.657 403.079 177.657 406.84V416.533Z"/>
</mask>
<path d="M206.681 417.191H177V406.84C177 402.905 178.564 399.13 181.347 396.347C184.13 393.564 187.905 392 191.841 392C195.776 392 199.551 393.564 202.334 396.347C205.117 399.13 206.681 402.905 206.681 406.84L206.681 417.191ZM177.657 416.533H206.024V406.84C206.024 403.079 204.529 399.471 201.87 396.811C199.21 394.151 195.602 392.657 191.84 392.657C188.079 392.657 184.471 394.151 181.811 396.811C179.151 399.471 177.657 403.079 177.657 406.84V416.533Z" fill="white"/>
<path d="M206.681 417.191V470.191H259.68L259.681 417.191L206.681 417.191ZM177 417.191H124V470.191H177V417.191ZM177 406.84H124H177ZM206.681 406.84L259.681 406.841V406.84H206.681ZM177.657 416.533H124.657V469.533H177.657V416.533ZM206.024 416.533V469.533H259.024V416.533H206.024ZM206.024 406.84H153.024H206.024ZM206.681 364.191H177V470.191H206.681V364.191ZM230 417.191V406.84H124V417.191H230ZM230 406.84C230 416.961 225.98 426.667 218.823 433.823L143.87 358.87C131.148 371.593 124 388.848 124 406.84L230 406.84ZM218.823 433.823C211.667 440.98 201.961 445 191.841 445V339C173.848 339 156.593 346.147 143.87 358.87L218.823 433.823ZM191.841 445C181.72 445 172.014 440.98 164.858 433.823L239.811 358.87C227.088 346.148 209.833 339 191.841 339V445ZM164.858 433.823C157.702 426.668 153.681 416.962 153.681 406.84H259.681C259.681 388.847 252.533 371.592 239.811 358.87L164.858 433.823ZM153.681 406.84L153.681 417.19L259.681 417.191L259.681 406.841L153.681 406.84ZM177.657 469.533H206.024V363.533H177.657V469.533ZM259.024 416.533V406.84H153.024V416.533H259.024ZM259.024 406.84C259.024 389.023 251.946 371.934 239.346 359.335L164.393 434.288C157.113 427.008 153.024 417.135 153.024 406.84L259.024 406.84ZM239.346 359.335C226.747 346.735 209.658 339.657 191.84 339.657V445.657C181.546 445.657 171.673 441.568 164.393 434.288L239.346 359.335ZM191.84 339.657C174.022 339.657 156.934 346.735 144.335 359.335L219.288 434.288C212.008 441.568 202.135 445.657 191.84 445.657V339.657ZM144.335 359.335C131.735 371.934 124.657 389.023 124.657 406.84H230.657C230.657 417.135 226.568 427.008 219.288 434.288L144.335 359.335ZM124.657 406.84V416.533H230.657V406.84H124.657Z" fill="white" mask="url(#path-20-inside-1_1_3)"/>
<path d="M224.871 416.045V412L149.389 414.023L147 516.478L158.171 530.278L224.871 416.045Z" fill="#CACACA"/>
<path d="M240.814 414L159 415.91L160.752 532.657L239.707 523.926L240.814 414Z" fill="#E4E4E4"/>
</svg>
